<svg xmlns="http://www.w3.org/2000/svg" viewBox="0 0 100 100">
  <circle cx="50" cy="50" r="49" fill="#7a1a14"/>
  <g transform="translate(17 19) scale(.66)" fill="none" stroke="#e8c877" stroke-width="8" stroke-linecap="round" stroke-linejoin="round">
    <path d="M95 8 L84 20 C58 8 24 22 16 50 C12 62 8 70 3 78 C22 86 44 88 60 87 C80 86 94 72 94 55 C94 37 79 25 62 25 C45 25 34 37 34 51 C34 64 45 72 57 72 C69 72 77 64 77 54 C77 45 70 39 62 39 C55 39 50 44 50 51 C50 57 55 60 60 60 C65 60 67 56 66 53"/>
  </g>
</svg>
